<svg xmlns="http://www.w3.org/2000/svg" width="382" height="247"><defs><clipPath id="a"><path fill="none" d="M0 0h382v247H0V0Z"/></clipPath></defs><g clip-path="url(#a)"><path fill="none" d="M0 0h382v247H0z"/><path fill="none" stroke="#D32F2F" paint-order="fill stroke markers" d="M172 154a73 73 0 1 1-146 0 73 73 0 0 1 146 0Z" stroke-opacity=".8" stroke-linecap="round" stroke-linejoin="round" stroke-miterlimit="10" stroke-width="2.5"/><path fill="none" stroke="#2E7D32" paint-order="fill stroke markers" d="M343 56a49 49 0 1 1-97 0 49 49 0 0 1 97 0Z" stroke-opacity=".8" stroke-linecap="round" stroke-linejoin="round" stroke-miterlimit="10" stroke-width="2.5"/><path fill="none" stroke="#616161" paint-order="fill stroke markers" d="M99 154h195M294 56v98M99 154l195-98" stroke-opacity=".8" stroke-linecap="round" stroke-linejoin="round" stroke-miterlimit="10" stroke-width="2.5"/><path fill="none" stroke="#D32F2F" paint-order="fill stroke markers" d="m99 154 1 73" stroke-opacity=".8" stroke-linejoin="round" stroke-miterlimit="10" stroke-width="2.5" stroke-dasharray="6.5,4"/><path fill="none" stroke="#2E7D32" paint-order="fill stroke markers" d="M294 56h49" stroke-opacity=".8" stroke-linejoin="round" stroke-miterlimit="10" stroke-width="2.5" stroke-dasharray="10.5,8"/><path fill="#1565C0" paint-order="stroke fill markers" d="M104 154a5 5 0 1 1-10 0 5 5 0 0 1 10 0Z"/><path fill="none" stroke="#000" paint-order="fill stroke markers" d="M104 154a5 5 0 1 1-10 0 5 5 0 0 1 10 0Z" stroke-linecap="round" stroke-linejoin="round" stroke-miterlimit="10"/><path fill="#1565C0" paint-order="stroke fill markers" d="M299 56a5 5 0 1 1-10 0 5 5 0 0 1 10 0Z"/><path fill="none" stroke="#000" paint-order="fill stroke markers" d="M299 56a5 5 0 1 1-10 0 5 5 0 0 1 10 0Z" stroke-linecap="round" stroke-linejoin="round" stroke-miterlimit="10"/><path fill="#1565C0" paint-order="stroke fill markers" d="M299 154a5 5 0 1 1-10 0 5 5 0 0 1 10 0Z"/><path fill="none" stroke="#000" paint-order="fill stroke markers" d="M299 154a5 5 0 1 1-10 0 5 5 0 0 1 10 0Z" stroke-linecap="round" stroke-linejoin="round" stroke-miterlimit="10"/><path fill="#1565C0" paint-order="stroke fill markers" d="M105 227a5 5 0 1 1-10 0 5 5 0 0 1 10 0Z"/><path fill="none" stroke="#000" paint-order="fill stroke markers" d="M105 227a5 5 0 1 1-10 0 5 5 0 0 1 10 0Z" stroke-linecap="round" stroke-linejoin="round" stroke-miterlimit="10"/><path fill="#1565C0" paint-order="stroke fill markers" d="M348 56a5 5 0 1 1-10 0 5 5 0 0 1 10 0Z"/><path fill="none" stroke="#000" paint-order="fill stroke markers" d="M348 56a5 5 0 1 1-10 0 5 5 0 0 1 10 0Z" stroke-linecap="round" stroke-linejoin="round" stroke-miterlimit="10"/><text fill="#D32F2F" font-family="geogebra-sans-serif, sans-serif" font-size="16" text-decoration="normal" x="81" y="197" dominant-baseline="alphabetic">R</text><text fill="#2E7D32" font-family="geogebra-sans-serif, sans-serif" font-size="16" text-decoration="normal" x="318" y="70" dominant-baseline="alphabetic">r</text><text font-family="geogebra-sans-serif, sans-serif" font-size="16" text-decoration="normal" x="190" y="92" dominant-baseline="alphabetic">D</text><text font-family="geogebra-sans-serif, sans-serif" font-size="16" text-decoration="normal" x="302" y="122" dominant-baseline="alphabetic">dx</text><text font-family="geogebra-sans-serif, sans-serif" font-size="16" text-decoration="normal" x="197" y="170" dominant-baseline="alphabetic">dy</text><text fill="#D32F2F" font-family="geogebra-sans-serif, sans-serif" font-size="16" text-decoration="normal" x="75" y="138" dominant-baseline="alphabetic">(x1, y1)</text><text fill="#2E7D32" font-family="geogebra-sans-serif, sans-serif" font-size="16" text-decoration="normal" x="267" y="42" dominant-baseline="alphabetic">(x2, y2)</text></g></svg>